<?xml version="1.0" encoding="UTF-8" ?>
<svg width="474" height="474" viewBox="0 0 474 162" fill="none" xmlns="http://www.w3.org/2000/svg">
<title>The Game Awards logo (2023)</title>
<path d="M117.637 115.03L148.383 84.2665L156.403 57.5152L117.637 96.3046V115.03Z" fill="black"/>
<path d="M8.02068 26.7513L77.5332 96.3046V115.03L86.8907 105.668L97.5849 116.368V135.094L106.942 125.731L126.379 145.179L131.673 131.75L0 0L8.02068 26.7513Z" fill="black"/>
<path d="M25.3988 84.2665L57.4815 116.368L42.1086 131.75L47.4022 145.179L66.839 125.731L77.5332 136.432L53.4712 160.508H72.1861L86.8907 145.794L101.595 160.508H120.31L17.3782 57.5152L25.3988 84.2665Z" fill="black"/>
<path d="M97.5849 76.2411V94.967L165.761 26.7513L173.781 0L97.5849 76.2411Z" fill="black"/>
</svg>
